HIERARCHY
ROOT Hips
{
	OFFSET 0.00000 0.00000 0.00000
	CHANNELS 6 Xposition Yposition Zposition Zrotation Yrotation Xrotation 
	JOINT LHipJoint
	{
		OFFSET 0 0 0
		CHANNELS 3 Zrotation Yrotation Xrotation
		JOINT LeftUpLeg
		{
			OFFSET 1.49846 -1.74315 1.08250
			CHANNELS 3 Zrotation Yrotation Xrotation
			JOINT LeftLeg
			{
				OFFSET 2.40966 -6.62050 0.00000
				CHANNELS 3 Zrotation Yrotation Xrotation
				JOINT LeftFoot
				{
					OFFSET 2.68066 -7.36505 0.00000
					CHANNELS 3 Zrotation Yrotation Xrotation
					JOINT LeftToeBase
					{
						OFFSET 0.14291 -0.39265 2.35870
						CHANNELS 3 Zrotation Yrotation Xrotation
						End Site
						{
							OFFSET 0.00000 -0.00000 1.20470
						}
					}
				}
			}
		}
	}
	JOINT RHipJoint
	{
		OFFSET 0 0 0
		CHANNELS 3 Zrotation Yrotation Xrotation
		JOINT RightUpLeg
		{
			OFFSET -1.46318 -1.74316 1.08250
			CHANNELS 3 Zrotation Yrotation Xrotation
			JOINT RightLeg
			{
				OFFSET -2.39759 -6.58734 0.00000
				CHANNELS 3 Zrotation Yrotation Xrotation
				JOINT RightFoot
				{
					OFFSET -2.63570 -7.24154 0.00000
					CHANNELS 3 Zrotation Yrotation Xrotation
					JOINT RightToeBase
					{
						OFFSET -0.17578 -0.48294 2.47180
						CHANNELS 3 Zrotation Yrotation Xrotation
						End Site
						{
							OFFSET -0.00000 -0.00000 1.26600
						}
					}
				}
			}
		}
	}
	JOINT LowerBack
	{
		OFFSET 0 0 0
		CHANNELS 3 Zrotation Yrotation Xrotation
		JOINT Spine
		{
			OFFSET 0.00843 2.19877 -0.20423
			CHANNELS 3 Zrotation Yrotation Xrotation
			JOINT Spine1
			{
				OFFSET -0.03080 2.21436 -0.05138
				CHANNELS 3 Zrotation Yrotation Xrotation
				JOINT Neck
				{
					OFFSET 0 0 0
					CHANNELS 3 Zrotation Yrotation Xrotation
					JOINT Neck1
					{
						OFFSET -0.04063 1.58841 0.30440
						CHANNELS 3 Zrotation Yrotation Xrotation
						JOINT Head
						{
							OFFSET 0.09277 1.59484 -0.39337
							CHANNELS 3 Zrotation Yrotation Xrotation
							End Site
							{
								OFFSET 0.03488 1.66530 -0.17040
							}
						}
					}
				}
				JOINT LeftShoulder
				{
					OFFSET 0 0 0
					CHANNELS 3 Zrotation Yrotation Xrotation
					JOINT LeftArm
					{
						OFFSET 3.03849 1.31522 0.02556
						CHANNELS 3 Zrotation Yrotation Xrotation
						JOINT LeftForeArm
						{
							OFFSET 5.25537 -0.00000 0.00000
							CHANNELS 3 Zrotation Yrotation Xrotation
							JOINT LeftHand
							{
								OFFSET 3.38855 -0.00000 -0.00000
								CHANNELS 3 Zrotation Yrotation Xrotation
								JOINT LeftFingerBase
								{
									OFFSET 0 0 0
									CHANNELS 3 Zrotation Yrotation Xrotation
									JOINT LeftHandIndex1
									{
										OFFSET 0.61452 -0.00000 0.00000
										CHANNELS 3 Zrotation Yrotation Xrotation
										End Site
										{
											OFFSET 0.49544 -0.00000 0.00000
										}
									}
								}
								JOINT LThumb
								{
									OFFSET 0 0 0
									CHANNELS 3 Zrotation Yrotation Xrotation
									End Site
									{
										OFFSET 0.50300 -0.00000 0.50300
									}
								}
							}
						}
					}
				}
				JOINT RightShoulder
				{
					OFFSET 0 0 0
					CHANNELS 3 Zrotation Yrotation Xrotation
					JOINT RightArm
					{
						OFFSET -3.06926 1.12091 -0.13185
						CHANNELS 3 Zrotation Yrotation Xrotation
						JOINT RightForeArm
						{
							OFFSET -5.38183 -0.00000 0.00000
							CHANNELS 3 Zrotation Yrotation Xrotation
							JOINT RightHand
							{
								OFFSET -3.16988 -0.00000 0.00000
								CHANNELS 3 Zrotation Yrotation Xrotation
								JOINT RightFingerBase
								{
									OFFSET 0 0 0
									CHANNELS 3 Zrotation Yrotation Xrotation
									JOINT RightHandIndex1
									{
										OFFSET -0.63768 -0.00000 0.00000
										CHANNELS 3 Zrotation Yrotation Xrotation
										End Site
										{
											OFFSET -0.51411 -0.00000 0.00000
										}
									}
								}
								JOINT RThumb
								{
									OFFSET 0 0 0
									CHANNELS 3 Zrotation Yrotation Xrotation
									End Site
									{
										OFFSET -0.52196 -0.00000 0.52196
									}
								}
							}
						}
					}
				}
			}
		}
	}
}
MOTION
Frames: 8
Frame Time: .0083333
5.8287 17.4687 -30.8033 0 0 0 0 0 0 -21 0 0 0 0 0 0 0 0 0 0 0 0 0 0 21 0 0 0 0 0 0 0 0 0 0 0 0 0 0 0 0 0 0 0 0 0 0 -16 0 0 21 0 0 11 0 0 0 -8 0 0 0 0 0 0 0 0 0 0 0 0 0 0 0 0 0 0 0 0 8 0 0 0 0 0 0 0 0 0 0 0 0 0 0 0 0 0
5.8287 17.4687 -30.8033 2.5797 0.7733 4.4641 0.0000 0.0000 0.0000 -21.5992 -25.3004 -3.6547 2.5356 9.9023 28.6608 0.4421 16.1062 -26.6855 0.2462 3.1928 8.8160 0.0000 0.0000 0.0000 18.8901 29.8523 -2.6762 -3.1795 -10.9801 32.2129 -2.8791 -21.0720 -44.6049 -0.4479 -4.2940 11.9054 -0.5025 -0.9707 -0.5308 -1.8355 -1.2192 3.6326 -1.6588 -0.5902 4.0066 -9.9941 -6.9657 -21.4017 9.5272 -9.7540 29.5763 3.7352 -4.0201 14.8719 -0.0000 0.0000 0.0000 -32.4284 12.3964 2.6226 20.6351 -31.3999 -5.8587 -0.0000 -0.0000 15.7778 16.8028 2.4887 0.7512 -7.1250 0.0000 -0.0000 -7.9059 32.5103 2.4380 -0.0000 0.0000 0.0000 28.3704 -8.8520 2.2387 -16.1899 25.7774 -3.7282 0.0000 -0.0000 -1.1440 -8.6558 7.1036 -1.0785 7.1250 -0.0000 -0.0000 13.2207 -22.8384 7.2417
5.8191 17.4697 -30.8078 2.5649 0.7939 4.4677 0.0000 0.0000 0.0000 -21.5430 -25.3664 -3.6430 2.5319 9.8956 28.6393 0.4528 16.0694 -26.7259 0.2611 3.2876 9.0805 0.0000 0.0000 0.0000 18.8769 29.6900 -2.7923 -3.1788 -10.9790 32.2091 -2.8449 -21.0281 -44.4301 -0.4409 -4.2605 11.8106 -0.4568 -0.9671 -0.4417 -1.8521 -1.2157 3.6749 -1.7002 -0.5866 3.9988 -10.2868 -7.1787 -21.2512 9.8379 -10.0365 29.1163 3.8442 -4.1396 14.7118 -0.0000 -0.0000 0.0000 -32.4490 12.2763 2.4249 20.5723 -31.3257 -5.8260 -0.0000 -0.0000 16.0331 17.0270 2.5192 0.7712 -7.1250 0.0000 -0.0000 -7.7291 32.5481 2.3755 -0.0000 -0.0000 0.0000 28.4760 -8.8199 2.1308 -16.2181 25.8155 -3.7405 0.0000 -0.0000 -1.0086 -8.6379 7.3395 -1.1118 7.1250 -0.0000 -0.0000 13.2140 -22.6066 7.3100
5.8089 17.4704 -30.8130 2.5162 0.8419 4.4767 0.0000 0.0000 0.0000 -21.4095 -25.3011 -3.7088 2.5290 9.8904 28.6224 0.4536 15.9820 -26.6300 0.2579 3.2673 9.0239 0.0000 0.0000 0.0000 18.9524 29.6700 -2.8269 -3.1757 -10.9741 32.1927 -2.8395 -21.0347 -44.4135 -0.4511 -4.3091 11.9480 -0.3775 -0.9539 -0.3082 -1.8649 -1.2020 3.6556 -1.7541 -0.5773 3.9016 -10.6543 -7.4168 -20.8520 10.2323 -10.3711 28.5558 3.9907 -4.2884 14.4759 -0.0000 -0.0000 0.0000 -32.3577 12.2843 2.5509 20.5832 -31.3386 -5.8317 -0.0000 -0.0000 16.0104 17.2041 2.5269 0.7821 -7.1250 0.0000 -0.0000 -7.5875 32.5611 2.3290 -0.0000 -0.0000 0.0000 28.5696 -8.8956 2.1354 -16.2564 25.8670 -3.7571 0.0000 -0.0000 -0.9772 -8.6432 7.3497 -1.1140 7.1250 -0.0000 -0.0000 13.2093 -22.5965 7.3105
5.7978 17.4724 -30.8185 2.4934 0.8932 4.4889 0.0000 0.0000 0.0000 -21.2959 -25.2253 -3.7961 2.5255 9.8841 28.6023 0.4483 15.9144 -26.5091 0.2489 3.2102 8.8645 0.0000 0.0000 0.0000 18.9635 29.5437 -2.9271 -3.1731 -10.9702 32.1795 -2.8087 -21.0478 -44.2983 -0.4446 -4.2784 11.8612 -0.3495 -0.9591 -0.2539 -1.8678 -1.2100 3.6642 -1.7721 -0.5805 3.8789 -11.0636 -7.7348 -20.3084 10.5787 -10.7921 27.8621 4.1041 -4.4926 14.1690 -0.0000 -0.0000 0.0000 -32.3094 12.3769 2.6536 20.6122 -31.3728 -5.8467 -0.0000 -0.0000 15.9408 17.4493 2.6779 0.8414 -7.1250 0.0000 -0.0000 -7.4054 32.7247 2.2428 -0.0000 -0.0000 0.0000 28.6626 -8.9125 2.1047 -16.2756 25.8929 -3.7655 0.0000 -0.0000 -0.9161 -8.6867 7.4699 -1.1379 7.1250 -0.0000 -0.0000 13.1683 -22.4772 7.3235
5.7870 17.4738 -30.8239 2.4669 0.9469 4.4982 0.0000 0.0000 0.0000 -21.1858 -25.1697 -3.8660 2.5225 9.8788 28.5850 0.4474 15.8363 -26.4111 0.2452 3.1866 8.7986 0.0000 0.0000 0.0000 18.9948 29.4564 -2.9957 -3.1697 -10.9649 32.1614 -2.7908 -21.0505 -44.2271 -0.4448 -4.2791 11.8634 -0.3134 -0.9692 -0.1681 -1.8668 -1.2253 3.6812 -1.7903 -0.5870 3.8468 -11.4654 -8.0343 -19.8648 10.9368 -11.1868 27.2085 4.2260 -4.6810 13.9065 -0.0000 -0.0000 0.0000 -32.2928 12.4299 2.6756 20.6226 -31.3852 -5.8522 -0.0000 -0.0000 15.9487 17.6908 2.7405 0.8737 -7.1250 0.0000 -0.0000 -7.2170 32.7968 2.1722 -0.0000 -0.0000 0.0000 28.7442 -8.9008 2.0639 -16.2940 25.9177 -3.7736 0.0000 -0.0000 -0.8447 -8.7468 7.5487 -1.1579 7.1250 -0.0000 -0.0000 13.1188 -22.3980 7.3190
5.7760 17.4753 -30.8295 2.4415 1.0079 4.5087 0.0000 0.0000 0.0000 -21.0705 -25.0974 -3.9458 2.5187 9.8719 28.5629 0.4453 15.7476 -26.2904 0.2398 3.1511 8.6998 0.0000 0.0000 0.0000 19.0288 29.3786 -3.0602 -3.1667 -10.9601 32.1454 -2.7769 -21.0549 -44.1736 -0.4459 -4.2841 11.8774 -0.2812 -0.9845 -0.0783 -1.8630 -1.2475 3.6986 -1.8036 -0.5972 3.8127 -11.8824 -8.3609 -19.3883 11.2952 -11.6157 26.5166 4.3429 -4.8889 13.6351 0.0000 -0.0000 0.0000 -32.2823 12.5056 2.7008 20.6383 -31.4036 -5.8603 -0.0000 -0.0000 15.9521 17.9385 2.8014 0.9065 -7.1250 0.0000 -0.0000 -7.0232 32.8676 2.1011 0.0000 -0.0000 0.0000 28.8238 -8.8881 2.0423 -16.3146 25.9453 -3.7825 0.0000 -0.0000 -0.7845 -8.8440 7.5919 -1.1776 7.1250 -0.0000 -0.0000 13.0456 -22.3531 7.2897
5.7647 17.4769 -30.8353 2.4189 1.0738 4.5218 0.0000 0.0000 0.0000 -20.9516 -25.0137 -4.0381 2.5152 9.8656 28.5425 0.4442 15.6419 -26.1587 0.2341 3.1140 8.5962 0.0000 0.0000 0.0000 19.0619 29.3084 -3.1223 -3.1634 -10.9549 32.1281 -2.7647 -21.0631 -44.1303 -0.4470 -4.2898 11.8934 -0.2510 -1.0031 0.0187 -1.8592 -1.2740 3.7200 -1.8156 -0.6096 3.7788 -12.3034 -8.7164 -18.9153 11.6447 -12.0803 25.8046 4.4490 -5.1154 13.3695 0.0000 0.0000 0.0000 -32.2785 12.5872 2.7083 20.6551 -31.4235 -5.8691 -0.0000 -0.0000 15.9748 18.1812 2.8576 0.9380 -7.1250 0.0000 -0.0000 -6.8327 32.9334 2.0324 0.0000 0.0000 0.0000 28.9052 -8.8659 2.0248 -16.3327 25.9697 -3.7905 0.0000 -0.0000 -0.7278 -8.9685 7.6081 -1.1970 7.1250 -0.0000 -0.0000 12.9550 -22.3341 7.2422
